<svg width="12" height="14" viewBox="0 0 12 14" fill="none" xmlns="http://www.w3.org/2000/svg">
<path fill-rule="evenodd" clip-rule="evenodd" d="M7.83333 0.28125C9.85838 0.28125 11.5 2.02734 11.5 4.18125C11.5 6.28621 9.93215 8.00167 7.9708 8.07856L7.83333 8.08125H4.77778V9.38125H7.22222C7.55973 9.38125 7.83333 9.67227 7.83333 10.0312C7.83333 10.3902 7.55973 10.6812 7.22222 10.6812H4.77778V12.6312C4.77778 12.9902 4.50417 13.2812 4.16667 13.2812C3.82916 13.2812 3.55556 12.9902 3.55556 12.6312V10.6812H1.11111C0.773604 10.6812 0.5 10.3902 0.5 10.0312C0.5 9.67227 0.773604 9.38125 1.11111 9.38125H3.55556V8.08125H1.11111C0.773604 8.08125 0.5 7.79023 0.5 7.43125C0.5 7.09791 0.735914 6.82317 1.03984 6.78562L1.11111 6.78125H3.55556V0.93125C3.55556 0.572265 3.82916 0.28125 4.16667 0.28125H7.83333ZM7.83333 1.58125H4.77778V6.78125H7.83333C9.18336 6.78125 10.2778 5.61719 10.2778 4.18125C10.2778 2.78882 9.24869 1.65205 7.95534 1.58443L7.83333 1.58125Z" fill="black"/>
</svg>
